<svg width="16" height="16" viewBox="0 0 16 16" fill="none" xmlns="http://www.w3.org/2000/svg">
<path fill-rule="evenodd" clip-rule="evenodd" d="M7.99992 1.33301C5.41992 1.33301 3.33325 3.41967 3.33325 5.99967C3.33325 9.49967 7.99992 14.6663 7.99992 14.6663C7.99992 14.6663 12.6666 9.49967 12.6666 5.99967C12.6666 3.41967 10.5799 1.33301 7.99992 1.33301ZM4.66659 5.99967C4.66659 4.15967 6.15992 2.66634 7.99992 2.66634C9.83992 2.66634 11.3333 4.15967 11.3333 5.99967C11.3333 7.91967 9.41325 10.793 7.99992 12.5863C6.61325 10.8063 4.66659 7.89967 4.66659 5.99967ZM6.33325 5.99967C6.33325 5.0792 7.07944 4.33301 7.99992 4.33301C8.59536 4.33301 9.14557 4.65067 9.44329 5.16634C9.74102 5.68201 9.74102 6.31734 9.44329 6.83301C9.14557 7.34868 8.59536 7.66634 7.99992 7.66634C7.07944 7.66634 6.33325 6.92015 6.33325 5.99967Z" fill="#C40B0B"/>
</svg>
