<svg width="63" height="63" viewBox="0 0 63 63" fill="none" xmlns="http://www.w3.org/2000/svg">
<g clip-path="url(#clip0_773_1011)">
<path d="M62.9999 33.5999V29.3999C62.9999 28.8201 62.5297 28.3499 61.9499 28.3499H48.8249V7.34998C48.8249 6.77012 48.3548 6.29999 47.7749 6.29999H36.6334C38.0509 4.92108 38.8504 3.02754 38.8499 1.05C38.8499 0.470137 38.3798 0 37.7999 0C35.216 0.00406874 32.824 1.36473 31.4999 3.58364C30.1759 1.36473 27.7839 0.00406874 25.1999 0C24.6201 0 24.1499 0.470137 24.1499 1.05C24.1494 3.02754 24.949 4.92108 26.3665 6.29999H15.225C14.6451 6.29999 14.175 6.77012 14.175 7.34998V28.3499H1.05C0.470136 28.3499 0 28.8201 0 29.3999V33.5999C0 34.1798 0.470136 34.6499 1.05 34.6499H35.5298L29.2298 36.7499H13.65C13.3715 36.7499 13.1045 36.8607 12.9076 37.0576L8.39998 41.5652L7.04233 40.2076C6.63231 39.7977 5.96766 39.7977 5.55764 40.2076L0.307649 45.4576C-0.102243 45.8676 -0.102243 46.5322 0.307649 46.9422L16.0576 62.6922C16.4676 63.1021 17.1323 63.1021 17.5423 62.6922L22.7923 57.4422C23.2022 57.0322 23.2022 56.3676 22.7923 55.9575L22.6191 55.7843L28.6859 51.4499H49.3499C49.6127 51.4499 49.866 51.3513 50.0597 51.1737L61.4774 40.7084C63.1991 39.1325 63.499 36.5299 62.1809 34.6037C62.6551 34.502 62.9954 34.0849 62.9999 33.5999ZM36.6155 2.2344C36.1592 4.18568 34.6356 5.70923 32.6843 6.16559C33.1407 4.2143 34.6642 2.69075 36.6155 2.2344ZM30.3155 6.16559C28.3642 5.70923 26.8407 4.18568 26.3843 2.2344C28.3356 2.69075 29.8592 4.2143 30.3155 6.16559ZM16.275 8.39998H46.7249V28.3499C21.937 28.3499 34.4298 28.3499 16.275 28.3499V8.39998ZM2.1 32.5499V30.4499H60.8999V32.5499H2.1ZM44.8778 35.2531C44.7657 35.0414 44.6358 34.8396 44.4895 34.6499H53.9384L46.8509 40.9499H43.1245C45.1818 39.8609 45.9668 37.3104 44.8778 35.2531ZM16.8 60.4652L2.53469 46.1999L6.29999 42.4346L20.5653 56.6999L16.8 60.4652ZM60.0599 39.1648L48.9414 49.3498H28.3499C28.1311 49.3498 27.918 49.418 27.7399 49.5451L21.1134 54.2785L9.88468 43.0498L14.0847 38.8498H29.3999C29.5127 38.8499 29.6248 38.8318 29.7317 38.7962L40.4732 35.2157C41.5837 34.8431 42.7861 35.4414 43.1587 36.5519C43.5313 37.6624 42.9331 38.8648 41.8226 39.2374C41.7827 39.2508 41.7424 39.263 41.7017 39.274L35.5592 40.9498H32.5499V43.0498H47.2499C47.5069 43.0499 47.755 42.9557 47.9471 42.7852L56.3628 35.305C56.8374 34.8828 57.4506 34.6495 58.0859 34.6498H58.3032C59.7367 34.6447 60.903 35.8026 60.9081 37.2359C60.9108 37.97 60.6026 38.6708 60.0599 39.1648Z" fill="#02133C"/>
<path d="M62.9999 33.5999V29.3999C62.9999 28.8201 62.5297 28.3499 61.9499 28.3499H48.8249V7.34998C48.8249 6.77012 48.3548 6.29999 47.7749 6.29999H36.6334C38.0509 4.92108 38.8504 3.02754 38.8499 1.05C38.8499 0.470137 38.3798 0 37.7999 0C35.216 0.00406874 32.824 1.36473 31.4999 3.58364C30.1759 1.36473 27.7839 0.00406874 25.1999 0C24.6201 0 24.1499 0.470137 24.1499 1.05C24.1494 3.02754 24.949 4.92108 26.3665 6.29999H15.225C14.6451 6.29999 14.175 6.77012 14.175 7.34998V28.3499H1.05C0.470136 28.3499 0 28.8201 0 29.3999V33.5999C0 34.1798 0.470136 34.6499 1.05 34.6499C62.1809 34.6037 62.1809 34.6037 62.1809 34.6037C62.6551 34.502 62.9954 34.0849 62.9999 33.5999ZM36.6155 2.2344C36.1592 4.18568 34.6356 5.70923 32.6843 6.16559C33.1407 4.2143 34.6642 2.69075 36.6155 2.2344ZM30.3155 6.16559C28.3642 5.70923 26.8407 4.18568 26.3843 2.2344C28.3356 2.69075 29.8592 4.2143 30.3155 6.16559ZM16.275 8.39998H46.7249V28.3499C21.937 28.3499 34.4298 28.3499 16.275 28.3499V8.39998Z" fill="#C40B0B"/>
<path d="M54.0751 4.2002H51.9751V6.30019H54.0751V4.2002Z" fill="#C40B0B"/>
<path d="M56.1747 2.1001H54.0747V4.20009H56.1747V2.1001Z" fill="#C40B0B"/>
<path d="M58.2748 4.2002H56.1748V6.30019H58.2748V4.2002Z" fill="#C40B0B"/>
<path d="M56.1747 6.30029H54.0747V8.4003H56.1747V6.30029Z" fill="#C40B0B"/>
<path d="M63.0001 1.05029H60.9001V3.15029H63.0001V1.05029Z" fill="#C40B0B"/>
<path d="M54.6 12.6001H52.5V14.7001H54.6V12.6001Z" fill="#C40B0B"/>
<path d="M8.92519 11.5503H6.8252V13.6503H8.92519V11.5503Z" fill="#C40B0B"/>
<path d="M8.92519 15.7505H6.8252V17.8505H8.92519V15.7505Z" fill="#C40B0B"/>
<path d="M11.0253 13.6499H8.92529V15.7499H11.0253V13.6499Z" fill="#C40B0B"/>
<path d="M6.8246 13.6499H4.72461V15.7499H6.8246V13.6499Z" fill="#C40B0B"/>
<path d="M2.1 6.30029H0V8.4003H2.1V6.30029Z" fill="#C40B0B"/>
<path d="M11.5499 1.05029H9.44995V3.15029H11.5499V1.05029Z" fill="#C40B0B"/>
<path d="M31.4998 28.875L21.2522 16.1538H41.7474L31.4998 28.875Z" fill="#C40B0B"/>
<path d="M41.7474 16.1538H21.2522L24.7859 10.5H38.2137L41.7474 16.1538Z" fill="#E30B0B"/>
<path d="M36.147 16.1538L38.2128 10.5H24.7849L26.8507 16.1538H36.147Z" fill="#C40B0B"/>
<path d="M36.0937 16.1538L31.5 10.5L26.9062 16.1538H36.0937Z" fill="#FE6F6F"/>
<path d="M26.8508 16.1538L31.499 28.875L36.1472 16.1538H26.8508Z" fill="#CB465F"/>
</g>
<defs>
<clipPath id="clip0_773_1011">
<rect width="63" height="63" fill="white"/>
</clipPath>
</defs>
</svg>
